<mxfile host="app.diagrams.net" modified="2023-04-05T22:29:23.302Z" agent="Mozilla/5.0 (Windows NT 10.0; Win64; x64) AppleWebKit/537.36 (KHTML, like Gecko) Chrome/111.0.0.0 Safari/537.36" etag="1-pBFM-oNatWZsPmVW-K" version="21.1.4" type="github" pages="2">
  <diagram name="Page-1" id="5M983Ip4SrJTzG_4KZ-2">
    <mxGraphModel dx="1050" dy="541" grid="1" gridSize="10" guides="1" tooltips="1" connect="1" arrows="1" fold="1" page="1" pageScale="1" pageWidth="850" pageHeight="1100" math="0" shadow="0">
      <root>
        <mxCell id="0" />
        <mxCell id="1" parent="0" />
        <mxCell id="h4DiS_OriqzLAdhp25H0-2" value="" style="fillColor=none;strokeColor=none;pointerEvents=0;fontStyle=0;html=1;whiteSpace=wrap;container=1;collapsible=0;childLayout=stackLayout;resizeParent=1;dropTarget=0;fontSize=13;spacing=0;strokeOpacity=100;rounded=1;absoluteArcSize=1;arcSize=9;strokeWidth=0.8;" vertex="1" parent="1">
          <mxGeometry x="225" y="165" width="240" height="810" as="geometry" />
        </mxCell>
        <mxCell id="h4DiS_OriqzLAdhp25H0-3" value="Admin" style="swimlane;html=1;whiteSpace=wrap;connectable=0;fontStyle=0;startSize=30;dropTarget=0;rounded=0;spacing=0;strokeColor=#3a414a;strokeOpacity=100;strokeWidth=0.8;container=1;pointerEvents=0;collapsible=0;recursiveResize=0;fontSize=16.7;fontColor=#3a414a;" vertex="1" parent="h4DiS_OriqzLAdhp25H0-2">
          <mxGeometry width="240" height="810" as="geometry" />
        </mxCell>
        <mxCell id="h4DiS_OriqzLAdhp25H0-4" value="" style="fillColor=none;strokeColor=none;pointerEvents=0;fontStyle=0;html=1;whiteSpace=wrap;container=1;collapsible=0;childLayout=stackLayout;resizeParent=1;dropTarget=0;fontSize=13;spacing=0;strokeOpacity=100;rounded=1;absoluteArcSize=1;arcSize=9;strokeWidth=0.8;" vertex="1" parent="1">
          <mxGeometry x="465" y="165" width="240" height="810" as="geometry" />
        </mxCell>
        <mxCell id="h4DiS_OriqzLAdhp25H0-5" value="Sistem" style="swimlane;html=1;whiteSpace=wrap;connectable=0;fontStyle=0;startSize=30;dropTarget=0;rounded=0;spacing=0;strokeColor=#3a414a;strokeOpacity=100;strokeWidth=0.8;container=1;pointerEvents=0;collapsible=0;recursiveResize=0;fontSize=16.7;fontColor=#3a414a;" vertex="1" parent="h4DiS_OriqzLAdhp25H0-4">
          <mxGeometry width="240" height="810" as="geometry" />
        </mxCell>
        <mxCell id="h4DiS_OriqzLAdhp25H0-32" value="" style="edgeStyle=orthogonalEdgeStyle;rounded=0;orthogonalLoop=1;jettySize=auto;html=1;entryX=0.5;entryY=0;entryDx=0;entryDy=0;" edge="1" parent="1" source="h4DiS_OriqzLAdhp25H0-29" target="h4DiS_OriqzLAdhp25H0-33">
          <mxGeometry relative="1" as="geometry">
            <mxPoint x="350" y="295" as="targetPoint" />
          </mxGeometry>
        </mxCell>
        <mxCell id="h4DiS_OriqzLAdhp25H0-29" value="" style="ellipse;html=1;shape=startState;fillColor=#000000;strokeColor=#ff0000;" vertex="1" parent="1">
          <mxGeometry x="330" y="210" width="30" height="30" as="geometry" />
        </mxCell>
        <mxCell id="h4DiS_OriqzLAdhp25H0-36" style="edgeStyle=orthogonalEdgeStyle;rounded=0;orthogonalLoop=1;jettySize=auto;html=1;" edge="1" parent="1" source="h4DiS_OriqzLAdhp25H0-33" target="h4DiS_OriqzLAdhp25H0-34">
          <mxGeometry relative="1" as="geometry" />
        </mxCell>
        <mxCell id="h4DiS_OriqzLAdhp25H0-33" value="Memasuki menu regristasi" style="rounded=1;whiteSpace=wrap;html=1;" vertex="1" parent="1">
          <mxGeometry x="285" y="300" width="120" height="60" as="geometry" />
        </mxCell>
        <mxCell id="h4DiS_OriqzLAdhp25H0-42" style="edgeStyle=orthogonalEdgeStyle;rounded=0;orthogonalLoop=1;jettySize=auto;html=1;exitX=0.5;exitY=1;exitDx=0;exitDy=0;entryX=0.5;entryY=0;entryDx=0;entryDy=0;" edge="1" parent="1" source="h4DiS_OriqzLAdhp25H0-34" target="h4DiS_OriqzLAdhp25H0-37">
          <mxGeometry relative="1" as="geometry" />
        </mxCell>
        <mxCell id="h4DiS_OriqzLAdhp25H0-34" value="Menampilkan halaman form login" style="rounded=1;whiteSpace=wrap;html=1;" vertex="1" parent="1">
          <mxGeometry x="540" y="300" width="120" height="60" as="geometry" />
        </mxCell>
        <mxCell id="h4DiS_OriqzLAdhp25H0-46" style="edgeStyle=orthogonalEdgeStyle;rounded=0;orthogonalLoop=1;jettySize=auto;html=1;entryX=0;entryY=0.5;entryDx=0;entryDy=0;" edge="1" parent="1" source="h4DiS_OriqzLAdhp25H0-37" target="h4DiS_OriqzLAdhp25H0-43">
          <mxGeometry relative="1" as="geometry" />
        </mxCell>
        <mxCell id="h4DiS_OriqzLAdhp25H0-37" value="Mengisi form registerasi" style="rounded=1;whiteSpace=wrap;html=1;" vertex="1" parent="1">
          <mxGeometry x="285" y="480" width="120" height="60" as="geometry" />
        </mxCell>
        <mxCell id="h4DiS_OriqzLAdhp25H0-48" style="edgeStyle=orthogonalEdgeStyle;rounded=0;orthogonalLoop=1;jettySize=auto;html=1;" edge="1" parent="1" source="h4DiS_OriqzLAdhp25H0-43" target="h4DiS_OriqzLAdhp25H0-45">
          <mxGeometry relative="1" as="geometry" />
        </mxCell>
        <mxCell id="h4DiS_OriqzLAdhp25H0-43" value="Memvalidasi data registerasi" style="rounded=1;whiteSpace=wrap;html=1;" vertex="1" parent="1">
          <mxGeometry x="525" y="480" width="120" height="60" as="geometry" />
        </mxCell>
        <mxCell id="h4DiS_OriqzLAdhp25H0-50" style="edgeStyle=orthogonalEdgeStyle;rounded=0;orthogonalLoop=1;jettySize=auto;html=1;entryX=0.5;entryY=1;entryDx=0;entryDy=0;" edge="1" parent="1" source="h4DiS_OriqzLAdhp25H0-45" target="h4DiS_OriqzLAdhp25H0-37">
          <mxGeometry relative="1" as="geometry" />
        </mxCell>
        <mxCell id="h4DiS_OriqzLAdhp25H0-52" value="salah" style="edgeLabel;html=1;align=center;verticalAlign=middle;resizable=0;points=[];fontStyle=1" vertex="1" connectable="0" parent="h4DiS_OriqzLAdhp25H0-50">
          <mxGeometry x="-0.2137" y="2" relative="1" as="geometry">
            <mxPoint as="offset" />
          </mxGeometry>
        </mxCell>
        <mxCell id="h4DiS_OriqzLAdhp25H0-45" value="" style="html=1;overflow=block;blockSpacing=1;whiteSpace=wrap;shape=rhombus;fontSize=13;spacing=0;strokeColor=#3a414a;strokeOpacity=100;rounded=1;absoluteArcSize=1;arcSize=9;strokeWidth=0.8;lucidId=YH6LPpz3KE2Y;" vertex="1" parent="1">
          <mxGeometry x="570" y="680" width="30" height="30" as="geometry" />
        </mxCell>
        <mxCell id="h4DiS_OriqzLAdhp25H0-59" style="edgeStyle=orthogonalEdgeStyle;rounded=0;orthogonalLoop=1;jettySize=auto;html=1;exitX=1;exitY=0.5;exitDx=0;exitDy=0;entryX=0;entryY=0.5;entryDx=0;entryDy=0;" edge="1" parent="1" source="h4DiS_OriqzLAdhp25H0-53" target="h4DiS_OriqzLAdhp25H0-57">
          <mxGeometry relative="1" as="geometry" />
        </mxCell>
        <mxCell id="h4DiS_OriqzLAdhp25H0-53" value="Mengirim data regristasi" style="rounded=1;whiteSpace=wrap;html=1;" vertex="1" parent="1">
          <mxGeometry x="285" y="820" width="120" height="60" as="geometry" />
        </mxCell>
        <mxCell id="h4DiS_OriqzLAdhp25H0-56" value="" style="endArrow=classic;html=1;rounded=0;exitX=0.5;exitY=1;exitDx=0;exitDy=0;edgeStyle=orthogonalEdgeStyle;" edge="1" parent="1" source="h4DiS_OriqzLAdhp25H0-45" target="h4DiS_OriqzLAdhp25H0-53">
          <mxGeometry width="50" height="50" relative="1" as="geometry">
            <mxPoint x="590" y="830" as="sourcePoint" />
            <mxPoint x="640" y="780" as="targetPoint" />
          </mxGeometry>
        </mxCell>
        <mxCell id="h4DiS_OriqzLAdhp25H0-58" value="benar" style="edgeLabel;html=1;align=center;verticalAlign=middle;resizable=0;points=[];fontStyle=1" vertex="1" connectable="0" parent="h4DiS_OriqzLAdhp25H0-56">
          <mxGeometry x="-0.1246" relative="1" as="geometry">
            <mxPoint as="offset" />
          </mxGeometry>
        </mxCell>
        <mxCell id="h4DiS_OriqzLAdhp25H0-61" style="edgeStyle=orthogonalEdgeStyle;rounded=0;orthogonalLoop=1;jettySize=auto;html=1;entryX=0.5;entryY=0;entryDx=0;entryDy=0;" edge="1" parent="1" source="h4DiS_OriqzLAdhp25H0-57" target="h4DiS_OriqzLAdhp25H0-60">
          <mxGeometry relative="1" as="geometry" />
        </mxCell>
        <mxCell id="h4DiS_OriqzLAdhp25H0-57" value="Menyimpan data regristasi" style="rounded=1;whiteSpace=wrap;html=1;" vertex="1" parent="1">
          <mxGeometry x="525" y="820" width="120" height="60" as="geometry" />
        </mxCell>
        <mxCell id="h4DiS_OriqzLAdhp25H0-60" value="" style="ellipse;html=1;shape=endState;fillColor=#000000;strokeColor=#ff0000;" vertex="1" parent="1">
          <mxGeometry x="570" y="920" width="30" height="30" as="geometry" />
        </mxCell>
      </root>
    </mxGraphModel>
  </diagram>
  <diagram id="B8BKmmMC5motzOkhar9B" name="Page-2">
    <mxGraphModel dx="1050" dy="541" grid="1" gridSize="10" guides="1" tooltips="1" connect="1" arrows="1" fold="1" page="1" pageScale="1" pageWidth="850" pageHeight="1100" math="0" shadow="0">
      <root>
        <mxCell id="0" />
        <mxCell id="1" parent="0" />
      </root>
    </mxGraphModel>
  </diagram>
</mxfile>
